Coordinates
version=1
nRows=17
nColumns=36
inDegrees=yes

Units are S.I. units (second, meters, Newtons, ...)
If the header above contains a line with 'inDegrees', this indicates whether rotational values are in degrees (yes) or radians (no).

endheader
time	pelvis_tilt	pelvis_list	pelvis_rotation	pelvis_tx	pelvis_ty	pelvis_tz	hip_flexion_r	hip_adduction_r	hip_rotation_r	knee_angle_r	knee_angle_r_beta	ankle_angle_r	subtalar_angle_r	mtp_angle_r	hip_flexion_l	hip_adduction_l	hip_rotation_l	knee_angle_l	knee_angle_l_beta	ankle_angle_l	subtalar_angle_l	mtp_angle_l	lumbar_extension	lumbar_bending	lumbar_rotation	arm_flex_r	arm_add_r	arm_rot_r	elbow_flex_r	pro_sup_r	arm_flex_l	arm_add_l	arm_rot_l	elbow_flex_l	pro_sup_l
     44.60000000	     11.49584992	     -6.01274462	    186.54994619	      0.53230508	      0.82022869	      0.75930935	     37.72281380	     -8.80050224	     -5.46764231	     12.58088263	      0.21957782	    -20.13835398	      5.88199774	     -7.49999987	     17.00397449	      9.67682702	     -3.16792133	     35.84766968	      0.62565987	      4.60422227	     -2.25907625	     -7.49999987	     -4.97792822	     -6.11766178	    -13.47974653	     -2.49312032	     -6.71361333	      3.93211159	      8.62340946	     79.41309567	     23.32364913	    -17.51003631	      0.47416019	      7.49739926	     94.53740164
     44.61666670	     11.34531511	     -5.77667244	    186.40085746	      0.53236851	      0.81903402	      0.75765890	     37.55785505	     -8.50740978	     -5.34250474	     13.00567472	      0.22699185	    -20.83361588	      5.13742277	     -7.49999987	     17.62412032	      8.96255009	     -3.32782459	     39.27911733	      0.68554992	      5.24098382	     -2.52220524	     -7.49999987	     -5.03121169	     -5.67509249	    -12.60054105	     -2.83842794	     -6.65632129	      0.57517273	      8.26994985	     80.16269281	     23.52967292	    -17.32881712	      4.84169732	      7.06750135	     96.35983836
     44.63333330	     11.07024265	     -5.44393509	    186.09584374	      0.53090144	      0.81831604	      0.75441280	     37.00586595	     -7.93904370	     -4.92873535	     13.32504978	      0.23256599	    -21.86659122	      4.62536335	     -7.49999987	     18.06462140	      7.88848423	     -3.57315351	     42.82260393	      0.74739543	      5.23750752	     -3.38536026	     -7.49999987	     -5.03586313	     -5.14890873	    -12.10627663	     -2.75694038	     -6.85723988	      0.45750782	      7.96673080	     80.33790163	     23.06207916	    -17.08755756	      4.87904404	      6.91474196	     96.30900216
     44.65000000	     10.95984431	     -4.94990854	    185.66735092	      0.52574754	      0.81651823	      0.74972595	     36.37779654	     -6.97302990	     -4.07574045	     13.48157780	      0.23529792	    -23.56005437	      3.46240669	     -7.49999987	     18.54843117	      6.43062576	     -3.81198316	     46.69828690	      0.81503886	      4.03370369	     -4.61996947	     -7.49999987	     -4.52533959	     -4.63813327	    -11.54615795	     -2.51835518	     -6.95868294	      0.36619523	      7.42601287	     80.10861176	     22.22947697	    -16.81914150	      4.94285435	      6.57601106	     95.63308880
     44.66666670	     10.58973291	     -4.02508242	    184.95873646	      0.51590876	      0.81453109	      0.74392299	     35.15011736	     -5.26262783	     -2.96971561	     13.67557996	      0.23868390	    -23.97303039	      2.52471110	     -7.49999987	     18.57914126	      4.24718727	     -4.15669518	     51.10712853	      0.89198766	      1.71304828	     -5.72580649	     -7.49999987	     -3.89732693	     -3.71470551	    -10.75140211	     -2.41489639	     -7.12445678	      0.38909333	      7.27132922	     80.35375383	     20.83331932	    -16.47051188	      4.90534625	      6.53176832	     95.48627462
     44.68333330	     10.29770402	     -2.57504087	    184.25748577	      0.50517895	      0.81118065	      0.73855486	     33.81749492	     -2.96757003	     -1.79156004	     14.22499983	      0.24827308	    -23.61522650	      0.12123861	     -7.49999987	     19.12637580	      1.42798752	     -4.39322569	     56.70842837	      0.98974879	     -1.63912049	     -6.57054957	     -7.49999987	     -2.81676774	     -2.28315017	    -10.53657041	     -1.86634952	     -7.42893199	      1.35199394	      6.26758596	     85.19786099	     18.74568033	    -16.07278682	      2.50611758	      6.37491710	     94.66331785
     44.70000000	      9.69144020	     -0.86632999	    183.64753089	      0.49780823	      0.80740370	      0.73544513	     32.25857036	     -0.60787904	     -1.16226680	     15.42640950	      0.26924164	    -21.52065163	     -1.95839409	     -7.49999987	     20.11475865	     -1.61424713	     -4.58275295	     63.14319869	      1.10205672	     -5.33027715	     -7.45025445	     -7.49999987	     -2.23568256	     -0.48418718	     -9.71926090	     -1.90272272	     -7.72205589	      1.23123757	      6.12315010	     85.42071315	     17.16818868	    -15.43633364	      2.34314769	      6.21857785	     94.57399140
     44.71666670	      9.07413427	      0.51872355	    183.25801822	      0.49406673	      0.80501043	      0.73415672	     30.82581672	      1.13643459	     -0.90477063	     17.08532341	      0.29819515	    -19.34053687	     -4.35675924	     -7.49999987	     21.73828444	     -4.02613480	     -4.54758955	     69.37746759	      1.21086524	     -8.29596984	     -8.77454458	     -7.49999987	     -1.88444976	      0.98933344	     -9.14750179	     -1.82685428	     -7.96793680	      1.22777882	      6.03369128	     85.84568776	     15.70822433	    -14.93458999	      1.89898642	      6.01833251	     94.50806990
     44.73333330	      8.40921274	      1.21782052	    183.04441358	      0.49241261	      0.80566406	      0.73286108	     29.38930044	      1.94162618	     -1.08261071	     18.93051713	      0.33039985	    -17.84811346	     -6.48286353	     -7.49999987	     23.32091249	     -5.31043552	     -4.27625822	     74.10140621	      1.29331352	    -10.44461650	    -10.60727276	     -7.49999987	     -1.77275133	      1.66314434	     -8.57305811	     -1.66624686	     -8.04594109	      1.25068725	      6.11827914	     86.19530286	     14.49271862	    -14.64564834	      1.39759167	      6.00420943	     94.38908182
     44.75000000	      7.70296346	      1.32266064	    182.80178512	      0.49291370	      0.80907996	      0.73069151	     28.09984974	      2.03421281	     -1.55505537	     20.92046035	      0.36513091	    -16.58560184	     -8.27077312	     -7.49999987	     24.54765586	     -5.72388492	     -4.04305037	     77.01100839	      1.34409566	    -11.53730595	    -12.32899524	     -7.49999987	     -2.09781792	      1.66377803	     -7.91953079	     -1.25324727	     -8.10594872	      1.23772173	      6.42537728	     86.28193810	     13.64219163	    -14.52225778	      1.16040697	      6.10712896	     94.27793167
     44.76666670	      7.11413526	      1.04720424	    182.48912307	      0.49476289	      0.81338204	      0.72816662	     26.94332870	      1.67095904	     -2.35573452	     22.66939721	      0.39565562	    -16.51258280	     -9.58864337	     -7.49999987	     25.85520727	     -5.53718379	     -3.83825106	     78.76401145	      1.37469133	    -11.94570234	    -14.35114419	     -7.49999987	     -2.47389656	      1.07131504	     -7.07931019	     -0.58663921	     -7.98837708	      1.21494871	      6.85045728	     86.30435740	     12.94211264	    -14.61588524	      0.96947317	      6.22563451	     94.16156527
     44.78333330	      6.81363680	      0.15172833	    182.11136275	      0.49678195	      0.81645930	      0.72693609	     26.23387593	      0.80011490	     -2.16564289	     24.18946034	      0.42218573	    -16.80307923	    -12.53012535	     -7.49999987	     27.71221843	     -4.28496855	     -3.68417188	     79.66155628	      1.39035644	    -14.26623328	    -19.02474359	     -7.49999987	     -2.94199345	     -0.11287387	     -5.99729097	      0.66583430	     -8.10103225	      0.98624100	      7.08288409	     86.48576130	     12.54183675	    -14.51448673	      0.20416134	      6.31377798	     93.96748774
     44.80000000	      6.26544633	     -0.33575534	    181.50385913	      0.49796159	      0.81884948	      0.72664285	     25.32897461	      0.41886008	     -2.28281559	     25.39545503	      0.44323431	    -16.08557169	    -15.15125670	     -7.49999987	     29.64877590	     -3.51162728	     -3.45275515	     79.98342285	      1.39597408	    -15.72655188	    -22.55029761	     -7.49999987	     -3.90775328	     -0.66898519	     -4.63260614	      2.43486586	     -8.53651623	      0.70558390	      7.84619029	     86.59093354	     12.22177325	    -14.19342123	     -0.70193146	      6.68592432	     93.69031968
     44.81666670	      5.73845699	     -0.75220882	    180.90490929	      0.49898650	      0.82178039	      0.72672304	     24.27461262	      0.04872552	     -2.62207850	     26.26684136	      0.45844287	    -14.66331062	    -17.40169873	     -7.49999987	     31.44411909	     -2.68913373	     -3.08111136	     78.70580226	      1.37367539	    -17.57712977	    -25.46736896	     -7.49999987	     -4.81869392	     -1.09535634	     -3.29496519	      4.45715196	     -9.11748395	      0.31871046	      8.83032210	     86.74800253	     11.91142339	    -13.63996462	     -2.32340250	      7.07546582	     93.28622775
     44.83333330	      5.42066274	     -1.08840302	    180.47296654	      0.50025061	      0.82602037	      0.72682588	     23.16241368	     -0.39227654	     -3.29953071	     26.61397135	      0.46450143	    -12.72718859	    -18.58084174	     -7.49999987	     32.87401910	     -1.87688785	     -2.54464651	     75.59660232	      1.31940961	    -19.12619919	    -26.90955514	     -7.49999987	     -5.29545888	     -1.45711280	     -2.10478621	      6.34578475	     -9.71855779	      0.06050898	     10.01089940	     86.83024945	     11.63898295	    -12.99180965	     -4.14045251	      7.30891474	     92.81238812
     44.85000000	      5.76071854	     -1.26030189	    180.16073119	      0.50182446	      0.82975682	      0.72699177	     22.30246497	     -0.65773677	     -3.93603747	     25.89320849	      0.45192174	    -11.18237620	    -19.05064909	     -7.49999987	     34.47110860	     -1.37473675	     -1.98152351	     71.46668832	      1.24732902	    -19.22900851	    -26.17472170	     -7.49999987	     -4.77710120	     -1.65195415	     -1.10964764	      7.72454656	    -10.26890642	     -0.02257480	     11.55998786	     86.21325478	     10.75703319	    -12.40776207	     -4.38413917	      8.29811630	     91.99360772
     44.86666670	      5.55996206	     -1.81598739	    179.65703905	      0.50395623	      0.83360397	      0.72733403	     21.01235767	     -1.28982696	     -4.41489877	     25.11166830	      0.43828129	     -8.79981692	    -17.88232646	     -7.49999987	     34.75243111	     -0.72469226	     -1.91017122	     66.19576681	      1.15533408	    -18.92444513	    -25.06466898	     -7.49999987	     -5.15517029	     -2.39573954	     -0.04345822	      9.13290905	    -10.66740338	      0.18738906	     13.12235895	     85.97015823	     10.88332450	    -11.85591641	     -5.78905281	      7.64287410	     91.24443561
